<!DOCTYPE svg PUBLIC "-//W3C//DTD SVG 1.1//EN" "http://www.w3.org/Graphics/SVG/1.1/DTD/svg11.dtd">
<!-- Uploaded to: SVG Repo, www.svgrepo.com, Transformed by: SVG Repo Mixer Tools -->
<svg fill="rgb(18, 183, 186)" version="1.1" id="Capa_1" xmlns="http://www.w3.org/2000/svg" xmlns:xlink="http://www.w3.org/1999/xlink" width="800px" height="800px" viewBox="0 0 27.834 27.834" xml:space="preserve" transform="rotate(180)">
<g id="SVGRepo_bgCarrier" stroke-width="0"/>
<g id="SVGRepo_tracerCarrier" stroke-linecap="round" stroke-linejoin="round" stroke="#CCCCCC" stroke-width="0.16700399999999999"/>
<g id="SVGRepo_iconCarrier"> <g> <path d="M13.917,27.834c-7.673,0-13.916-6.243-13.916-13.917S6.244,0,13.917,0s13.916,6.243,13.916,13.917 S21.59,27.834,13.917,27.834z M13.917,3.001c-6.021,0-10.916,4.897-10.916,10.917c0,6.021,4.896,10.917,10.916,10.917 c6.02,0,10.916-4.896,10.916-10.917C24.833,7.898,19.937,3.001,13.917,3.001z M11.005,16.023h11.451v-4.212H11.005V8.21 l-5.709,5.708l5.709,5.708V16.023z"/> </g> </g>
</svg>