<?xml version="1.0" standalone="no"?>
<!DOCTYPE svg PUBLIC "-//W3C//DTD SVG 20010904//EN"
 "http://www.w3.org/TR/2001/REC-SVG-20010904/DTD/svg10.dtd">
<svg version="1.0" xmlns="http://www.w3.org/2000/svg"
 width="360.000000pt" height="205.000000pt" viewBox="0 0 360.000000 205.000000"
 preserveAspectRatio="xMidYMid meet">

    <g transform="translate(0.000000,205.000000) scale(0.100000,-0.100000)"
        fill="rgb(18, 183, 186)" stroke="none">
        <path d="M740 1419 c-215 -42 -363 -254 -329 -471 35 -225 254 -386 472 -348
        279 49 430 342 307 595 -55 114 -170 201 -294 224 -68 12 -92 12 -156 0z m110
        -299 l0 -150 -30 0 -30 0 0 150 0 150 30 0 30 0 0 -150z m-80 53 c0 -18 -12
        -36 -40 -60 -61 -52 -71 -130 -26 -198 44 -67 148 -79 209 -25 69 60 68 159
        -2 221 -28 25 -41 45 -41 63 0 32 3 32 56 1 93 -54 126 -180 74 -273 -26 -47
        -95 -96 -148 -106 -50 -9 -116 12 -162 51 -54 46 -73 86 -74 153 -1 71 36 138
        97 174 53 32 57 32 57 -1z"/>
        <path d="M3125 1325 l-25 -24 0 -245 c0 -135 4 -256 9 -269 11 -28 41 -42 71
        -32 35 11 42 65 38 318 -3 237 -3 239 -27 258 -30 25 -37 24 -66 -6z"/>
        <path d="M1510 1281 c-5 -11 -10 -40 -10 -65 0 -43 -2 -47 -34 -60 -42 -17
        -55 -50 -31 -76 9 -10 27 -20 39 -22 20 -3 21 -9 24 -138 2 -123 4 -137 23
        -152 27 -23 44 -23 69 2 18 18 20 33 20 155 l0 135 29 0 c16 0 37 7 45 16 34
        34 8 84 -45 84 -28 0 -29 1 -29 51 0 69 -12 89 -55 89 -24 0 -38 -6 -45 -19z"/>
        <path d="M1837 1165 c-82 -29 -129 -103 -129 -201 0 -129 77 -214 193 -214 69
        0 104 12 143 48 86 80 89 236 6 320 -55 58 -135 75 -213 47z m124 -124 c23
        -24 29 -38 29 -74 0 -92 -81 -139 -135 -81 -42 45 -30 149 19 172 35 18 56 13
        87 -17z"/>
        <path d="M2286 1166 c-151 -56 -182 -275 -54 -379 53 -42 111 -47 162 -12 21
        14 40 24 43 21 3 -2 2 -18 -2 -35 -14 -65 -85 -88 -172 -55 -52 20 -91 12 -99
        -20 -13 -54 36 -90 139 -102 121 -14 214 43 236 146 16 72 14 378 -2 410 -15
        31 -50 37 -83 15 -23 -15 -28 -15 -42 -2 -26 23 -82 29 -126 13z m121 -128
        c29 -27 37 -79 19 -122 -25 -59 -76 -73 -123 -32 -24 21 -28 32 -28 74 0 53
        20 87 60 102 24 9 43 3 72 -22z"/>
        <path d="M2748 1168 c-57 -15 -113 -83 -128 -152 -14 -67 -7 -117 23 -171 23
        -41 73 -81 114 -91 35 -9 87 4 112 27 27 26 35 20 26 -20 -14 -65 -90 -89
        -175 -55 -50 20 -88 12 -96 -20 -13 -52 39 -90 138 -102 71 -8 154 15 190 53
        50 55 53 66 56 281 3 174 1 206 -12 227 -19 29 -57 33 -81 9 -14 -14 -18 -14
        -39 -1 -32 21 -84 27 -128 15z m121 -130 c76 -81 -9 -224 -96 -163 -44 31 -49
        119 -10 163 27 29 79 30 106 0z"/>
    </g>
</svg>
